{
    "asset": {
        "version": "2.0",
        "generator": "Open Asset Import Library (assimp v5.0.5eb040c7)"
    },
    "accessors": [
        {
            "bufferView": 0,
            "byteOffset": 0,
            "componentType": 5126,
            "count": 13262,
            "type": "VEC3",
            "max": [
                1.8673999309539796,
                1.1827000379562379,
                4.935199737548828
            ],
            "min": [
                -1.8673999309539796,
                -1.1827000379562379,
                0.011300000362098217
            ]
        },
        {
            "bufferView": 1,
            "byteOffset": 0,
            "componentType": 5126,
            "count": 13262,
            "type": "VEC3",
            "max": [
                0.9999998807907105,
                1.0,
                1.0
            ],
            "min": [
                -0.9999998807907105,
                -1.0,
                -1.0
            ]
        },
        {
            "bufferView": 2,
            "byteOffset": 0,
            "componentType": 5125,
            "count": 79536,
            "type": "SCALAR",
            "max": [
                13261
            ],
            "min": [
                0
            ]
        }
    ],
    "buffers": [
        {
            "byteLength": 636432,
            "uri": "result.bin"
        }
    ],
    "bufferViews": [
        {
            "buffer": 0,
            "byteOffset": 0,
            "byteLength": 159144,
            "target": 34962
        },
        {
            "buffer": 0,
            "byteOffset": 159144,
            "byteLength": 159144,
            "target": 34962
        },
        {
            "buffer": 0,
            "byteOffset": 318288,
            "byteLength": 318144,
            "target": 34963
        }
    ],
    "materials": [
        {
            "name": "DefaultMaterial",
            "pbrMetallicRoughness": {
                "baseColorFactor": [
                    0.6000000238418579,
                    0.6000000238418579,
                    0.6000000238418579,
                    1.0
                ],
                "metallicFactor": 0.0
            }
        },
        {
            "name": "07___Default",
            "pbrMetallicRoughness": {
                "baseColorFactor": [
                    0.6000000238418579,
                    0.6000000238418579,
                    0.6000000238418579,
                    1.0
                ],
                "metallicFactor": 0.0
            }
        }
    ],
    "meshes": [
        {
            "name": "21330_Flame_v1",
            "primitives": [
                {
                    "mode": 4,
                    "material": 1,
                    "indices": 2,
                    "attributes": {
                        "POSITION": 0,
                        "NORMAL": 1
                    }
                }
            ]
        }
    ],
    "nodes": [
        {
            "name": "input.obj",
            "children": [
                1
            ]
        },
        {
            "name": "21330_Flame_v1",
            "mesh": 0
        }
    ],
    "scenes": [
        {
            "nodes": [
                0
            ]
        }
    ],
    "scene": 0
}